<svg width="40" height="40" viewBox="0 0 40 40" fill="none" xmlns="http://www.w3.org/2000/svg">
<g clip-path="url(#clip0_191243_651)">
<path d="M20 40C31.0457 40 40 31.0457 40 20C40 8.95431 31.0457 0 20 0C8.95431 0 0 8.95431 0 20C0 31.0457 8.95431 40 20 40Z" fill="#26A5E4"/>
<path fill-rule="evenodd" clip-rule="evenodd" d="M9.05308 19.7889L20.7167 14.7649C26.2709 12.4547 27.425 12.0534 28.1772 12.0402C28.3427 12.0373 28.7126 12.0783 28.9522 12.2727C29.1546 12.4369 29.2102 12.6587 29.2369 12.8143C29.2636 12.9699 29.2967 13.3246 29.2704 13.6017C28.9694 16.7641 27.667 24.4386 27.0044 27.9806C26.724 29.4794 26.1724 29.9819 25.6376 30.0311C24.4762 30.138 23.5942 29.2635 22.4693 28.5261L18.006 25.528C16.0313 24.2268 17.3114 23.5116 18.4368 22.3428C18.7312 22.0368 23.8486 17.3823 23.9476 16.96C23.9596 16.9072 23.9714 16.7104 23.8545 16.6064C23.7376 16.5024 23.5649 16.5384 23.4404 16.5663C23.2639 16.6064 20.4518 18.465 15.0043 22.1423C14.2061 22.6904 13.4831 22.9575 12.8354 22.9435C12.1213 22.9281 10.7476 22.5397 9.72648 22.2078C8.47396 21.8007 7.47848 21.5854 7.5652 20.8939C7.61032 20.5338 8.10628 20.1655 9.05304 19.789L9.05308 19.7889Z" fill="white"/>
</g>
<defs>
<clipPath id="clip0_191243_651">
<rect width="40" height="40" fill="white"/>
</clipPath>
</defs>
</svg>
